<svg xmlns="http://www.w3.org/2000/svg" viewBox="0 0 512 512">
  <defs>
    <linearGradient id="bg" x1="0%" y1="0%" x2="100%" y2="100%">
      <stop offset="0%" style="stop-color:#6c5ce7"/>
      <stop offset="100%" style="stop-color:#a29bfe"/>
    </linearGradient>
  </defs>
  <rect width="512" height="512" rx="108" fill="url(#bg)"/>
  <!-- Leaf / sprout icon -->
  <g transform="translate(256,256)" fill="none" stroke="white" stroke-width="16" stroke-linecap="round" stroke-linejoin="round">
    <path d="M0,80 C0,80 -40,-20 -20,-80 C0,-120 40,-100 40,-60 C40,-20 0,20 0,80" fill="rgba(255,255,255,0.15)"/>
    <path d="M0,80 C0,80 40,-20 20,-80 C0,-120 -40,-100 -40,-60 C-40,-20 0,20 0,80" fill="rgba(255,255,255,0.25)"/>
    <line x1="0" y1="80" x2="0" y2="140"/>
    <!-- Small heart -->
    <path d="M-8,-30 C-8,-40 0,-45 0,-35 C0,-45 8,-40 8,-30 C8,-20 0,-12 0,-12 C0,-12 -8,-20 -8,-30Z" fill="white" stroke="none"/>
  </g>
  <!-- Text KJ -->
  <text x="256" y="420" font-family="system-ui,sans-serif" font-size="72" font-weight="800" text-anchor="middle" fill="rgba(255,255,255,0.9)">KJ</text>
</svg>
